<?xml version="1.0" encoding="utf-8"?>
<!-- Generator: Adobe Illustrator 21.0.0, SVG Export Plug-In . SVG Version: 6.00 Build 0)  -->
<svg version="1.1" id="Layer_1" xmlns="http://www.w3.org/2000/svg" xmlns:xlink="http://www.w3.org/1999/xlink" x="0px" y="0px"
	 viewBox="0 0 42.5 25.4" style="enable-background:new 0 0 42.5 25.4;" xml:space="preserve">
<style type="text/css">
	.st0{fill:url(#SVGID_1_);}
	.st1{fill:#FFFFFF;}
	.st2{fill:#FFFFFF;fill-opacity:0.4;}
	.st3{fill:#262626;fill-opacity:0.2;}
	.st4{fill:url(#SVGID_2_);}
	.st5{fill:none;}
	.st6{fill:url(#SVGID_3_);}
	.st7{fill:url(#SVGID_4_);}
	.st8{fill:url(#SVGID_5_);}
	.st9{fill:url(#SVGID_6_);}
	.st10{fill:url(#SVGID_7_);}
	.st11{fill:url(#SVGID_8_);}
	.st12{fill:url(#SVGID_9_);}
	.st13{filter:url(#Adobe_OpacityMaskFilter);}
	.st14{opacity:0.25;mask:url(#SVGID_10_);}
	.st15{fill:#282828;}
	.st16{fill:url(#SVGID_11_);}
	.st17{filter:url(#Adobe_OpacityMaskFilter_1_);}
	.st18{opacity:0.25;mask:url(#SVGID_12_);}
	.st19{fill:url(#SVGID_13_);}
	.st20{fill:url(#SVGID_14_);}
</style>
<linearGradient id="SVGID_1_" gradientUnits="userSpaceOnUse" x1="28.095" y1="8.1981" x2="28.095" y2="9.9693" gradientTransform="matrix(1 0 0 -1 0 28)">
	<stop  offset="0" style="stop-color:#005FA6"/>
	<stop  offset="1" style="stop-color:#0585BC"/>
</linearGradient>
<path class="st0" d="M33.2,20.6L33.2,20.6h-0.3c-0.7,0-1-0.5-1.2-1.1c-0.1-0.2-0.3-0.1-0.5-0.2c-0.5-0.2-1-0.3-1.6-0.4
	c-2-0.3-3.9-0.8-5.9-1l0.1,0.5c-0.2,0.2-0.3,0.3-0.5,0.5l-0.4,0.2c1.1,0,2.1,0.1,3.2,0.3l-0.3-0.1l3.7,0.6c0.5,0.1,0.7,0.2,1.4,0.4
	s1.5,0.4,2.4,0.6C33.3,20.7,33.2,20.6,33.2,20.6z"/>
<title>A_icon</title>
<path class="st1" d="M30.9,16c0-0.1,0-0.2-0.1-0.3l0,0l-3.5-5.9l-1.2-1.9L24,4.3l-2.9-4.1V4l1.2,1.9l2,3.4l1.1,1.9l3.4,5.6
	c0,0.1,0.1,0.1,0.2,0.2l1.7,1.1c0.5,0.3-0.3,0.3,0.2,0l0,0c0.1,0,0.1-0.1,0.1-0.2L30.9,16z"/>
<path class="st2" d="M26.1,8l1.1,2l3.5,5.8l0,0c0.1,0.1,0.1,0.2,0.1,0.3L31,18l0,0l-0.1-2c0-0.1,0-0.2-0.1-0.3l0,0l-3.5-5.9
	l-1.2-1.9L24,4.3l-0.1,0.1L26.1,8z"/>
<path class="st3" d="M30.9,18L30.9,18c-0.1,0-0.1,0-0.2,0L29,16.8c-0.1-0.1-0.2-0.1-0.2-0.2L25.5,11l-1.1-1.9L21.3,4l0,0.1l3.1,5.2
	l1.1,1.9l3.4,5.6c0,0.1,0.1,0.2,0.2,0.2l1.7,1.1c0.5,0.3-0.3,0.3,0.2,0l0,0C30.9,18.1,31,18,30.9,18l0.1-0.1
	C31,17.9,30.9,17.9,30.9,18z"/>
<linearGradient id="SVGID_2_" gradientUnits="userSpaceOnUse" x1="11.0665" y1="8.4392" x2="25.1142" y2="10.1374">
	<stop  offset="0" style="stop-color:#F1F1F1"/>
	<stop  offset="1" style="stop-color:#FFFFFF"/>
</linearGradient>
<path class="st4" d="M24.4,9.3c-0.9,0.5-2,0.8-3.1,0.8c-1.1,0-2.1-0.3-3.1-0.8l2-3.4l1-1.7V0l-2.7,4.3l-6.7,11.4
	c-0.1,0.1-0.1,0.2-0.1,0.3l-0.1,2c0,0.1,0,0.1,0.1,0.2l0,0c0.1,0,0.1,0,0.2,0l1.7-1.2c0.1-0.1,0.2-0.1,0.2-0.2l0,0l3.4-5.6
	c2.6,1.4,5.8,1.4,8.4,0C26.1,10.8,25,8.9,24.4,9.3z"/>
<path class="st5" d="M21.9,6.3c-0.2,0.2-0.4,0.2-0.6,0.3l0,0c-0.2,0-0.5-0.1-0.6-0.3l-0.4-0.4l-2,3.4c0.9,0.5,2,0.8,3.1,0.8
	c1.1,0,2.1-0.3,3.1-0.8l-2-3.4L21.9,6.3z"/>
<path class="st2" d="M11.8,15.8l6.9-11.5l-0.1-0.1l-6.8,11.4c-0.1,0.1-0.1,0.2-0.1,0.3l-0.1,2l0,0l0.1-1.9
	C11.7,16,11.7,15.9,11.8,15.8z"/>
<path class="st2" d="M21.3,10.2c1.1,0,2.1-0.3,3.1-0.8C25,9,25.6,8.6,26.1,8c0,0,0.1,0,0-0.1s0-0.1,0,0c-0.5,0.6-1.1,1-1.8,1.4
	c-1.9,1-4.2,1-6.1,0l-0.1,0.1C19.1,9.9,20.2,10.2,21.3,10.2z"/>
<path class="st3" d="M18.2,9.3l3.1-5.2l0-0.1L18.2,9.3L18.2,9.3z"/>
<path class="st3" d="M25.5,11c-2.6,1.4-5.8,1.4-8.4,0l-3.4,5.6l0,0c-0.1,0.1-0.1,0.2-0.2,0.2l-1.7,1.1c-0.1,0-0.1,0-0.2,0l0,0
	c0,0-0.1-0.1-0.1-0.1v0.1c0,0.1,0,0.1,0.1,0.2l0,0c0.1,0,0.1,0,0.2,0l1.7-1.1c0.1-0.1,0.2-0.1,0.2-0.2l0,0l3.4-5.6
	c2.6,1.4,5.8,1.4,8.4,0C26.1,10.8,26.1,10.6,25.5,11z"/>
<linearGradient id="SVGID_3_" gradientUnits="userSpaceOnUse" x1="28.41" y1="8.0319" x2="28.41" y2="9.0819" gradientTransform="matrix(1 0 0 -1 0 28)">
	<stop  offset="0" style="stop-color:#00689E"/>
	<stop  offset="1" style="stop-color:#0585BC"/>
</linearGradient>
<path class="st6" d="M30.9,19.9c-0.5-0.2-0.9-0.3-1.4-0.4l-3.7-0.6l0.3,0.1c1.7,0.2,3.4,0.6,5,1v-0.1L30.9,19.9z"/>
<linearGradient id="SVGID_4_" gradientUnits="userSpaceOnUse" x1="21.2703" y1="3.31" x2="21.2703" y2="10.5997" gradientTransform="matrix(1 0 0 -1 0 28)">
	<stop  offset="0" style="stop-color:#00689E"/>
	<stop  offset="1" style="stop-color:#0585BC"/>
</linearGradient>
<path class="st7" d="M22.9,18.7l0.4-0.2c0.2-0.1,0.4-0.5,0.5-0.6l-0.1-0.3c2,0.3,3.9,0.7,5.9,1c0.5,0.1,1.1,0.2,1.6,0.4
	c0.2,0,0.4,0,0.5,0.2c0.3,0.6,0.5,1.1,1.2,1.1h0.3l0,0c0,0,0.1,0.1,0.1,0.2c1.7,0.6,3.4,1.3,5,2.2c0.2-0.2,0.5-0.3,0.8-0.3
	c0.2,0,0.5,0.1,0.7,0.3c0.3,0.3,0.5,0.8,0.6,1.2c0.4,0.3,0.8,0.6,1.2,0.9c0.3-1-0.2-2.4-3.5-3.8c-4.3-1.8-12.4-3.5-17.2-3.5
	c-3.6,0-14.6,2.5-17.6,3.8c-0.2,0-2.4,1.3-2.4,3.1l1.8-1.7c0.1-0.1,0.6-0.7,0.7-0.8c0.9-0.5,1.9-0.6,2.8-1.1L6.4,21l-1,0.7l0.1,0.2
	c0.9-0.4,1.1-0.6,2.5-1.2c0.2-0.1,0.5-0.1,0.7-0.2c0.5-0.1,1-0.2,1.5-0.5c0.9-0.6,1.9-1.3,2.9-1.3c0.3,0,0.6,0,0.8,0.1
	c-0.8,0.5-1.7,1.3-2.6,1.4c3.2-0.9,6.6-1.7,9.9-1.7C21.8,18.5,22.3,18.7,22.9,18.7z"/>
<linearGradient id="SVGID_5_" gradientUnits="userSpaceOnUse" x1="4.195" y1="5" x2="4.195" y2="5.91" gradientTransform="matrix(1 0 0 -1 0 28)">
	<stop  offset="0" style="stop-color:#00689E"/>
	<stop  offset="1" style="stop-color:#0585BC"/>
</linearGradient>
<path class="st8" d="M3.9,22.6L3.5,23l0,0c0.4-0.3,0.9-0.5,1.3-0.7l-0.1-0.2L3.9,22.6z"/>
<linearGradient id="SVGID_6_" gradientUnits="userSpaceOnUse" x1="21.2782" y1="2.64" x2="21.2782" y2="11.4506" gradientTransform="matrix(1 0 0 -1 0 28)">
	<stop  offset="0" style="stop-color:#00689E"/>
	<stop  offset="1" style="stop-color:#058EBB"/>
</linearGradient>
<path class="st9" d="M3.5,23l0.4-0.4l0.9-0.5l0.1,0.2c2.1-1,4.2-1.4,6.4-2c0.9-0.2,1.8-1,2.6-1.4c-0.3,0-0.6-0.1-0.8-0.1
	c-1,0-2,0.8-2.9,1.3c-0.5,0.2-1,0.4-1.5,0.5c-0.2,0-0.5,0.1-0.7,0.2c-1.4,0.6-1.7,0.8-2.5,1.2l-0.1-0.2l1-0.7l-0.2-0.3
	c-0.9,0.5-1.9,0.6-2.8,1.1c-0.1,0-0.6,0.7-0.7,0.8l-1.8,1.7c0-1.9,2.2-3.1,2.4-3.1c3-1.4,14.1-3.9,17.6-3.8c4.8,0,12.9,1.7,17.2,3.5
	c3.3,1.4,3.8,2.8,3.5,3.8l0.7,0.6c0.2-0.4,0.2-0.9,0.2-1.3c-0.2-1.5-1.5-2.7-4.1-3.8c-5.6-2.4-11.5-3.6-17.6-3.6
	c-6.2,0-12.4,1.3-18,3.9l0,0c-1.6,0.7-2.7,2.2-2.9,3.9v1C1.1,24.5,2.3,23.7,3.5,23L3.5,23z"/>
<linearGradient id="SVGID_7_" gradientUnits="userSpaceOnUse" x1="35.84" y1="5.29" x2="35.84" y2="7.51" gradientTransform="matrix(1 0 0 -1 0 28)">
	<stop  offset="0" style="stop-color:#00689E"/>
	<stop  offset="1" style="stop-color:#0585BC"/>
</linearGradient>
<path class="st10" d="M33.5,20.9l1.3,0.3c-0.2,0.8,0.5,0.8,0.9,1.1s2,0,2.3,0.3c0,0,0.1,0.1,0.2,0.1c0.1,0,0.1,0,0.2-0.1
	c-1.6-0.9-3.3-1.6-5-2.2C33.4,20.6,33.4,20.8,33.5,20.9z"/>
<linearGradient id="SVGID_8_" gradientUnits="userSpaceOnUse" x1="36.695" y1="2.6229" x2="36.695" y2="8.0325" gradientTransform="matrix(1 0 0 -1 0 28)">
	<stop  offset="0" style="stop-color:#00689E"/>
	<stop  offset="1" style="stop-color:#0585BC"/>
</linearGradient>
<path class="st11" d="M40.4,23.9c-0.7-0.4-1.3-0.8-2-1.2c-0.1,0-0.1,0.1-0.2,0.1c-0.1,0-0.1,0-0.2-0.1c-0.3-0.3-1.9,0-2.3-0.3
	s-1.2-0.3-0.9-1.1l-1.3-0.3c-0.1-0.2-0.1-0.3-0.2-0.5c-0.8-0.3-1.5-0.3-2.3-0.5c0.3,0.7,0.9,1,1.6,1.2l0.1,0.1l0.2,0.4l0.4,0.1
	l0.6,0.2c0.2,0.5,0.6,0.8,1.1,1l0.2,0.1c0.5,0.3,1.1,0.4,1.6,0.3c0.2,0,0.4,0,0.7,0c0.2,0.1,0.4,0.2,0.7,0.2c0.3,0,0.6-0.1,0.8-0.3
	l0.1-0.1l0,0c0.4,0.4,2.9,2.7,3.2,2l-0.7-0.6C41.2,24.4,41.1,24.2,40.4,23.9z"/>
<g>
	<g>
		
			<linearGradient id="SVGID_9_" gradientUnits="userSpaceOnUse" x1="36.665" y1="2.6213" x2="36.665" y2="8.1321" gradientTransform="matrix(1 0 0 -1 0 28)">
			<stop  offset="0" style="stop-color:#00689E"/>
			<stop  offset="1" style="stop-color:#0585BC"/>
		</linearGradient>
		<path class="st12" d="M40.5,23.1c-0.7-0.4-1-0.3-1.6-0.7c-0.1,0-0.7,0.3-0.7,0.3c-0.1,0-0.1,0-0.2-0.1c-0.3-0.3-1.9,0-2.3-0.3
			s-1.2-0.3-0.9-1.1l-1.3-0.3c-0.1-0.2-0.1-0.3-0.2-0.5c-0.8-0.3-1.6-0.4-2.4-0.6c0.3,0.7,0.9,1.1,1.7,1.3l0.1,0.1l0.2,0.4l0.4,0.1
			l0.6,0.2c0.2,0.5,0.6,0.8,1.1,1l0.2,0.1c0.5,0.3,1.1,0.4,1.6,0.3c0.2,0,0.4,0,0.7,0c0.2,0.1,0.4,0.2,0.7,0.2
			c0.3,0,0.6-0.1,0.8-0.3l0.1-0.1l0,0c0.4,0.4,2.9,2.7,3.2,2l-0.7-1.3C41.4,24.8,40.8,24.1,40.5,23.1z"/>
	</g>
	<defs>
		<filter id="Adobe_OpacityMaskFilter" filterUnits="userSpaceOnUse" x="31" y="19.8" width="11.3" height="5.4">
			
				<feColorMatrix  type="matrix" values="-1 0 0 0 1  0 -1 0 0 1  0 0 -1 0 1  0 0 0 1 0" color-interpolation-filters="sRGB" result="source"/>
		</filter>
	</defs>
	<mask maskUnits="userSpaceOnUse" x="31" y="19.8" width="11.3" height="5.4" id="SVGID_10_">
		<g class="st13">
			<image style="overflow:visible;" width="16" height="10" xlink:href="4AE105AD.jpg"  transform="matrix(1 0 0 1 29 17.38)">
			</image>
		</g>
	</mask>
	<g class="st14">
		<path class="st15" d="M40.5,23.1c-0.7-0.4-1-0.3-1.6-0.7c-0.1,0-0.7,0.3-0.7,0.3c-0.1,0-0.1,0-0.2-0.1c-0.3-0.3-1.9,0-2.3-0.3
			s-1.2-0.3-0.9-1.1l-1.3-0.3c-0.1-0.2-0.1-0.3-0.2-0.5c-0.8-0.3-1.6-0.4-2.4-0.6c0.3,0.7,0.9,1.1,1.7,1.3l0.1,0.1l0.2,0.4l0.4,0.1
			l0.6,0.2c0.2,0.5,0.6,0.8,1.1,1l0.2,0.1c0.5,0.3,1.1,0.4,1.6,0.3c0.2,0,0.4,0,0.7,0c0.2,0.1,0.4,0.2,0.7,0.2
			c0.3,0,0.6-0.1,0.8-0.3l0.1-0.1l0,0c0.4,0.4,2.9,2.7,3.2,2l-0.7-1.3C41.4,24.8,40.8,24.1,40.5,23.1z"/>
	</g>
</g>
<g>
	<g>
		
			<linearGradient id="SVGID_11_" gradientUnits="userSpaceOnUse" x1="14.73" y1="2.4303" x2="14.73" y2="9.1166" gradientTransform="matrix(1 0 0 -1 0 28)">
			<stop  offset="0" style="stop-color:#005FA6"/>
			<stop  offset="1" style="stop-color:#0585BC"/>
		</linearGradient>
		<path class="st16" d="M21.2,19.6l0.1,0.8c0.7-0.3,1.5-0.7,2.3-0.7c0.8,0,1.6,0.1,2.4,0.4l-1.8,0.3v0.3c1.3,0.2,2.4,0.8,3.4,1.6
			c-0.9,0.1-1.6,0.6-2.4,0.6c-0.3,0-0.6-0.1-0.9-0.2c-0.3-0.1-0.7-0.2-1.1-0.2c-0.4,0-0.8-0.2-1.2-0.2l0,0c-0.3,0-0.7,0.5-1,0.6
			c-0.9,0.3-1.8,0.6-2.6,0.9c-0.4,0.1-0.9,0.1-1.2,0.4c-0.2,0.2-0.5,0.3-0.7,0.3c-0.4,0-0.7-0.2-1-0.4c1.6-1.4,3.5-2.8,5.5-3.2
			l-0.1-1.4l-3.5,1.2c-0.5,0-1.1,0.1-1.6,0.3c-1.3,0.7-2.5,2.3-3.8,3.1c-0.4,0.2-0.6,0.5-0.9,0.5s-0.4-0.2-0.7-0.6s-0.5-0.7,0-1.1
			c0-0.6,0-1.1-0.2-1.7c0.3-0.4,0.7-1.7,1.3-1.8c-2.9,0.8-8.2,3.5-10.6,4.7L0,25.6l5.8-2.8l0.7-0.3C7,22.3,7.4,22,8.4,21.6h0.2
			l0.4-0.1l0.3-0.1l0.1-0.1c0.1,0.3,0,1,0.1,1.3c-0.4,0.5-0.4,1.2,0,1.7l0.1,0.1c0.3,0.6,0.9,1,1.5,1.1c0.4,0,0.9-0.2,1.2-0.5
			c0.1-0.1,0.9-1,1-1c0.6-0.4,2.1-1.8,3.3-2.4c1.1-0.4,2.3-1,1.9-0.8c-2.1,0.7-3.6,2.6-3.6,2.6l-0.9,0.7l1,0.6
			c0.4,0.3,0.9,0.5,1.5,0.5c0.5,0,0.9-0.2,1.3-0.5c0.1,0,0.2-0.1,0.3-0.1c0.2,0,0.4-0.1,0.6-0.1l1.2-0.4l1.5-0.5
			c0.2-0.1,0.4-0.6,0.7-0.6l0,0h0.7l0.6,0.2c0.2,0,0.4,0,0.6,0.1c0.4,0.2,0.9,0.3,1.3,0.3c0.6,0,1.1-0.2,1.6-0.4
			c0.3-0.1,0.7-0.2,1-0.3l1.7-0.2l-1.2-1.2c-0.4-0.4-0.8-0.7-1.2-0.9l2.3-0.4l-3.1-1.1l-0.2-0.1c-1-0.1-2.1-0.2-3.2-0.3L21.2,19.6z"
			/>
	</g>
	<defs>
		<filter id="Adobe_OpacityMaskFilter_1_" filterUnits="userSpaceOnUse" x="0" y="19" width="29.5" height="6.7">
			
				<feColorMatrix  type="matrix" values="-1 0 0 0 1  0 -1 0 0 1  0 0 -1 0 1  0 0 0 1 0" color-interpolation-filters="sRGB" result="source"/>
		</filter>
	</defs>
	<mask maskUnits="userSpaceOnUse" x="0" y="19" width="29.5" height="6.7" id="SVGID_12_">
		<g class="st17">
			<image style="overflow:visible;" width="34" height="12" xlink:href="4AE105AF.jpg"  transform="matrix(1 0 0 1 -2 16.38)">
			</image>
		</g>
	</mask>
	<g class="st18">
		<path class="st15" d="M21.2,19.6l0.1,0.8c0.7-0.3,1.5-0.7,2.3-0.7c0.8,0,1.6,0.1,2.4,0.4l-1.8,0.3v0.3c1.3,0.2,2.4,0.8,3.4,1.6
			c-0.9,0.1-1.6,0.6-2.4,0.6c-0.3,0-0.6-0.1-0.9-0.2c-0.3-0.1-0.7-0.2-1.1-0.2c-0.4,0-0.8-0.2-1.2-0.2l0,0c-0.3,0-0.7,0.5-1,0.6
			c-0.9,0.3-1.8,0.6-2.6,0.9c-0.4,0.1-0.9,0.1-1.2,0.4c-0.2,0.2-0.5,0.3-0.7,0.3c-0.4,0-0.7-0.2-1-0.4c1.6-1.4,3.5-2.8,5.5-3.2
			l-0.1-1.4l-3.5,1.2c-0.5,0-1.1,0.1-1.6,0.3c-1.3,0.7-2.5,2.3-3.8,3.1c-0.4,0.2-0.6,0.5-0.9,0.5s-0.4-0.2-0.7-0.6s-0.5-0.7,0-1.1
			c0-0.6,0-1.1-0.2-1.7c0.3-0.4,0.7-1.7,1.3-1.8c-2.9,0.8-8.2,3.5-10.6,4.7L0,25.6l5.8-2.8l0.7-0.3C7,22.3,7.4,22,8.4,21.6h0.2
			l0.4-0.1l0.3-0.1l0.1-0.1c0.1,0.3,0,1,0.1,1.3c-0.4,0.5-0.4,1.2,0,1.7l0.1,0.1c0.3,0.6,0.9,1,1.5,1.1c0.4,0,0.9-0.2,1.2-0.5
			c0.1-0.1,0.9-1,1-1c0.6-0.4,2.1-1.8,3.3-2.4c1.1-0.4,2.3-1,1.9-0.8c-2.1,0.7-3.6,2.6-3.6,2.6l-0.9,0.7l1,0.6
			c0.4,0.3,0.9,0.5,1.5,0.5c0.5,0,0.9-0.2,1.3-0.5c0.1,0,0.2-0.1,0.3-0.1c0.2,0,0.4-0.1,0.6-0.1l1.2-0.4l1.5-0.5
			c0.2-0.1,0.4-0.6,0.7-0.6l0,0h0.7l0.6,0.2c0.2,0,0.4,0,0.6,0.1c0.4,0.2,0.9,0.3,1.3,0.3c0.6,0,1.1-0.2,1.6-0.4
			c0.3-0.1,0.7-0.2,1-0.3l1.7-0.2l-1.2-1.2c-0.4-0.4-0.8-0.7-1.2-0.9l2.3-0.4l-3.1-1.1l-0.2-0.1c-1-0.1-2.1-0.2-3.2-0.3L21.2,19.6z"
			/>
	</g>
</g>
<linearGradient id="SVGID_13_" gradientUnits="userSpaceOnUse" x1="21.2736" y1="2.9839" x2="21.2736" y2="11.0204" gradientTransform="matrix(1 0 0 -1 0 28)">
	<stop  offset="0" style="stop-color:#00689E"/>
	<stop  offset="1" style="stop-color:#0585BC"/>
</linearGradient>
<path class="st19" d="M39.5,23c-0.1-0.1-0.2-0.2-0.3-0.2c-0.1,0-0.3,0.1-0.4,0.2c-0.2,0.1-0.4,0.2-0.6,0.2c-0.2,0-0.3-0.1-0.5-0.2
	c-0.3,0-0.6,0-0.8,0c-0.5,0.1-0.9,0-1.4-0.2c-0.1-0.1-0.2-0.1-0.3-0.1c-0.3-0.1-0.8-0.4-0.9-1l-1.1-0.3l-0.1-0.2L33,20.7l0,0
	c-0.8,0-1.4-0.4-1.6-1.2l0,0c-0.1,0-0.2-0.1-0.3-0.1c-0.5-0.2-1-0.3-1.5-0.4c-1.4-0.2-2.9-0.4-4.3-0.6l-1-0.3l-0.2,0.3L24,18.6
	c-0.1,0.2-0.3,0.3-0.5,0.4L23.4,19h0.3c0.9,0,1.7,0.2,2.5,0.5l1.6,0.5l-2.2,0.4c0.9,0.2,1.7,0.7,2.4,1.4l0.6,0.6l-0.9,0.1
	c-0.4,0.1-0.7,0.2-1.1,0.3c-0.5,0.2-0.9,0.3-1.4,0.3c-0.4,0-0.8-0.1-1.2-0.3c-0.3-0.1-0.6-0.2-0.9-0.1l-0.6-0.2h-0.6l0,0
	c-0.3,0-0.6,0.5-0.9,0.6l-1.5,0.5L18.4,24c-0.2,0-0.3,0.1-0.5,0.1c-0.2,0-0.4,0.1-0.5,0.1c-0.3,0.3-0.6,0.4-1,0.5
	c-0.4,0-0.9-0.2-1.2-0.5L14.6,24l0.6-0.5c1.5-1.3,3.2-2.7,5.1-3.1v-0.1l-0.5,0.1L17.3,21c-0.2,0-0.4,0.1-0.6,0.1
	c-0.3,0-0.6,0.1-0.8,0.2c-0.7,0.5-1.4,1-2,1.6c-0.5,0.6-1.1,1.1-1.8,1.5l-0.3,0.2c-0.3,0.2-0.6,0.4-0.9,0.4
	c-0.5-0.1-0.9-0.4-1.1-0.8L9.8,24c-0.4-0.4-0.4-1,0-1.4c0-0.5-0.1-0.9-0.2-1.4V21l0.1-0.1c0-0.1,0.1-0.2,0.2-0.2
	c-0.2,0.1-0.4,0.1-0.6,0.1l-0.4,0.1l-0.3,0.1c-0.1,0-0.2,0-0.3,0.1c-1,0.4-1.4,0.6-1.8,0.9l-1.1,0.6l-0.2-1l-1.4,0.8
	c-0.8,0.8-1.7,1.5-2.7,2.1H0.4c0-1.9,1.9-3.3,2.6-3.5l0,0C6.1,19.4,17.3,17,20.9,17c4.9,0,13,1.7,17.4,3.5c2.4,1,3.7,2.2,3.8,3.5
	S40,23.5,39.5,23z"/>
<linearGradient id="SVGID_14_" gradientUnits="userSpaceOnUse" x1="21.2478" y1="16.5262" x2="21.2478" y2="20.056">
	<stop  offset="0" style="stop-color:#FFFFFF;stop-opacity:0.5"/>
	<stop  offset="1" style="stop-color:#00689E;stop-opacity:0"/>
</linearGradient>
<path class="st20" d="M33.9,18.5c-4.2-1.3-8.5-1.9-12.9-1.9c-0.1,0-0.1,0-0.2,0c-4.1,0-8.2,0.6-12.1,1.8c0,1,5.7,1.7,12.6,1.7
	c2.2,0,4.2-0.1,6-0.2l-1.1-0.4c-0.8-0.3-1.7-0.4-2.5-0.4h-0.3l0.2-0.1c0.2-0.1,0.3-0.2,0.5-0.4l0.1-0.1l0.2-0.3l1,0.3
	c1.4,0.2,2.9,0.4,4.3,0.6c0.5,0.1,0.9,0.2,1.3,0.4C32.6,19.2,33.6,18.8,33.9,18.5z"/>
</svg>
